<?xml version="1.0" encoding="UTF-8"?>
<svg xmlns="http://www.w3.org/2000/svg" version="1.1" width="300" height="300" viewBox="0 0 300 300"><rect x="0" y="0" width="300" height="300" fill="#ffffff"/><g transform="scale(9.091)"><g transform="translate(2,2)"><path fill-rule="evenodd" d="M8 0L8 4L9 4L9 3L10 3L10 5L8 5L8 7L9 7L9 8L12 8L12 7L13 7L13 6L14 6L14 8L15 8L15 9L14 9L14 10L15 10L15 11L14 11L14 12L15 12L15 11L16 11L16 13L14 13L14 14L13 14L13 9L11 9L11 11L10 11L10 13L11 13L11 14L9 14L9 12L8 12L8 11L9 11L9 10L10 10L10 9L7 9L7 8L4 8L4 10L1 10L1 9L2 9L2 8L0 8L0 10L1 10L1 11L0 11L0 12L1 12L1 11L2 11L2 12L3 12L3 13L4 13L4 14L5 14L5 15L3 15L3 14L2 14L2 13L0 13L0 16L1 16L1 17L0 17L0 18L2 18L2 17L3 17L3 16L4 16L4 17L7 17L7 16L9 16L9 15L12 15L12 16L11 16L11 17L9 17L9 19L7 19L7 18L6 18L6 19L4 19L4 18L3 18L3 19L2 19L2 20L0 20L0 21L4 21L4 20L5 20L5 21L7 21L7 20L9 20L9 21L8 21L8 22L9 22L9 23L8 23L8 25L10 25L10 26L9 26L9 27L8 27L8 29L9 29L9 27L10 27L10 29L11 29L11 27L13 27L13 26L14 26L14 28L15 28L15 27L16 27L16 29L18 29L18 28L19 28L19 26L20 26L20 29L21 29L21 28L22 28L22 25L23 25L23 26L24 26L24 25L26 25L26 24L25 24L25 23L27 23L27 26L25 26L25 28L24 28L24 29L26 29L26 27L27 27L27 29L28 29L28 28L29 28L29 25L28 25L28 24L29 24L29 17L28 17L28 16L29 16L29 13L28 13L28 12L29 12L29 8L25 8L25 9L24 9L24 8L23 8L23 9L22 9L22 10L20 10L20 12L19 12L19 11L17 11L17 10L16 10L16 7L17 7L17 9L18 9L18 7L19 7L19 6L20 6L20 9L21 9L21 5L17 5L17 3L18 3L18 4L20 4L20 3L21 3L21 1L19 1L19 0L18 0L18 1L19 1L19 2L17 2L17 0L10 0L10 1L9 1L9 0ZM11 1L11 3L12 3L12 2L13 2L13 3L15 3L15 2L16 2L16 1L14 1L14 2L13 2L13 1ZM19 2L19 3L20 3L20 2ZM13 4L13 5L10 5L10 6L9 6L9 7L10 7L10 6L11 6L11 7L12 7L12 6L13 6L13 5L14 5L14 6L15 6L15 7L16 7L16 5L14 5L14 4ZM17 6L17 7L18 7L18 6ZM5 9L5 10L4 10L4 13L5 13L5 14L7 14L7 13L6 13L6 12L7 12L7 11L8 11L8 10L7 10L7 9ZM6 10L6 11L5 11L5 12L6 12L6 11L7 11L7 10ZM24 10L24 11L26 11L26 12L22 12L22 11L21 11L21 12L22 12L22 13L19 13L19 15L18 15L18 14L16 14L16 16L15 16L15 15L13 15L13 14L12 14L12 15L13 15L13 17L12 17L12 18L14 18L14 16L15 16L15 17L17 17L17 15L18 15L18 17L19 17L19 18L18 18L18 19L19 19L19 20L18 20L18 21L19 21L19 20L20 20L20 18L21 18L21 19L22 19L22 18L21 18L21 16L20 16L20 17L19 17L19 15L20 15L20 14L21 14L21 15L22 15L22 17L26 17L26 18L25 18L25 19L24 19L24 20L26 20L26 21L25 21L25 22L27 22L27 23L28 23L28 20L27 20L27 19L28 19L28 18L27 18L27 15L28 15L28 14L27 14L27 15L25 15L25 14L22 14L22 13L27 13L27 11L28 11L28 10ZM11 11L11 12L12 12L12 11ZM1 14L1 16L3 16L3 15L2 15L2 14ZM8 14L8 15L9 15L9 14ZM5 15L5 16L7 16L7 15ZM23 15L23 16L25 16L25 15ZM10 18L10 19L9 19L9 20L10 20L10 21L9 21L9 22L10 22L10 23L11 23L11 22L10 22L10 21L12 21L12 22L13 22L13 23L12 23L12 24L13 24L13 25L12 25L12 26L13 26L13 25L16 25L16 24L17 24L17 23L18 23L18 24L19 24L19 23L18 23L18 22L16 22L16 24L15 24L15 23L14 23L14 22L13 22L13 21L16 21L16 20L14 20L14 19L13 19L13 21L12 21L12 19L11 19L11 18ZM26 18L26 19L27 19L27 18ZM6 19L6 20L7 20L7 19ZM10 19L10 20L11 20L11 19ZM21 21L21 24L24 24L24 21ZM22 22L22 23L23 23L23 22ZM10 24L10 25L11 25L11 24ZM20 25L20 26L21 26L21 25ZM10 26L10 27L11 27L11 26ZM16 26L16 27L18 27L18 26ZM0 0L0 7L7 7L7 0ZM1 1L1 6L6 6L6 1ZM2 2L2 5L5 5L5 2ZM22 0L22 7L29 7L29 0ZM23 1L23 6L28 6L28 1ZM24 2L24 5L27 5L27 2ZM0 22L0 29L7 29L7 22ZM1 23L1 28L6 28L6 23ZM2 24L2 27L5 27L5 24Z" fill="#000000"/></g></g></svg>
